<svg width="24" height="24" viewBox="0 0 24 24" fill="none" xmlns="http://www.w3.org/2000/svg">
    <path fill-rule="evenodd" clip-rule="evenodd" d="M11.3872 2H15.2104C17.277 2 18.9523 3.6753 18.9523 5.74189C18.9523 7.80849 17.277 9.48379 15.2104 9.48379H11.3872V2ZM12.6129 3.22569V8.2581H15.2104C16.6 8.2581 17.7266 7.13156 17.7266 5.74189C17.7266 4.35224 16.6 3.22569 15.2104 3.22569H12.6129Z" fill="white"/>
    <path fill-rule="evenodd" clip-rule="evenodd" d="M5.04773 5.74189C5.04773 3.6753 6.72303 2 8.78963 2H12.6128V9.48379H8.78963C6.72303 9.48379 5.04773 7.80849 5.04773 5.74189ZM8.78963 3.22569C7.39996 3.22569 6.27342 4.35224 6.27342 5.74189C6.27342 7.13156 7.39996 8.2581 8.78963 8.2581H11.3871V3.22569H8.78963Z" fill="white"/>
    <path fill-rule="evenodd" clip-rule="evenodd" d="M5.04773 12.0001C5.04773 9.93347 6.72303 8.25818 8.78963 8.25818H12.6128V15.742H8.78963C6.72303 15.742 5.04773 14.0667 5.04773 12.0001ZM8.78963 9.48387C7.39996 9.48387 6.27342 10.6104 6.27342 12.0001C6.27342 13.3897 7.39996 14.5163 8.78963 14.5163H11.3871V9.48387H8.78963Z" fill="white"/>
    <path fill-rule="evenodd" clip-rule="evenodd" d="M5.04773 18.2581C5.04773 16.1915 6.72303 14.5162 8.78963 14.5162H12.6128V18.2174C12.6128 20.3116 10.8937 22 8.80982 22C6.74836 22 5.04773 20.3298 5.04773 18.2581ZM8.78963 15.7419C7.39996 15.7419 6.27342 16.8684 6.27342 18.2581C6.27342 19.6426 7.41501 20.7743 8.80982 20.7743C10.2271 20.7743 11.3871 19.6244 11.3871 18.2174V15.7419H8.78963Z" fill="white"/>
    <path fill-rule="evenodd" clip-rule="evenodd" d="M11.3872 12.0001C11.3872 9.93347 13.0625 8.25818 15.1291 8.25818H15.2104C17.277 8.25818 18.9523 9.93347 18.9523 12.0001C18.9523 14.0667 17.277 15.742 15.2104 15.742H15.1291C13.0625 15.742 11.3872 14.0667 11.3872 12.0001ZM15.1291 9.48387C13.7394 9.48387 12.6129 10.6104 12.6129 12.0001C12.6129 13.3897 13.7394 14.5163 15.1291 14.5163H15.2104C16.6 14.5163 17.7266 13.3897 17.7266 12.0001C17.7266 10.6104 16.6 9.48387 15.2104 9.48387H15.1291Z"
        fill="white"/>
</svg>
